<svg width="244" height="71" viewBox="0 0 244 71" fill="none" xmlns="http://www.w3.org/2000/svg">
<path fill-rule="evenodd" clip-rule="evenodd" d="M191.47 11.0075L191.208 11.4892C188.075 10.1345 184.842 9.09087 181.578 8.24795C179.941 7.81646 178.294 7.46524 176.627 7.1642C175.996 7.04106 175.352 6.94154 174.715 6.84299C174.522 6.81304 174.329 6.78318 174.137 6.75277C173.935 6.72608 173.734 6.69879 173.532 6.67149C172.899 6.5859 172.266 6.50013 171.626 6.43166C169.949 6.241 168.272 6.11055 166.595 6.0102C164.918 5.89982 163.241 5.81954 161.564 5.76937C158.21 5.65898 154.846 5.66902 151.492 5.88978C148.137 6.12058 144.803 6.53201 141.49 7.13409C140.816 7.24759 140.149 7.38729 139.484 7.52673L139.483 7.52678L139.483 7.52698C139.325 7.56005 139.167 7.59311 139.009 7.6258L137.734 7.87667C137.302 7.96698 136.88 8.04726 136.448 8.1175L135.163 8.33826L133.867 8.51889C133.436 8.5791 133.004 8.62927 132.572 8.67945C132.14 8.72962 131.708 8.77979 131.267 8.8099C129.529 8.98049 127.782 9.0708 126.025 9.0407H125.804L125.753 34.1878C125.753 38.4325 127.42 40.1585 129.76 40.1585C131.608 40.1585 133.144 39.1149 135.062 36.2851C135.243 36.0342 135.976 36.5861 135.866 36.837C133.275 40.9011 130.915 43.3696 127.732 43.0585C123.735 42.6672 121.375 40.6502 121.375 34.4989V11.73L121.365 8.74969C121.199 8.73225 121.033 8.70724 120.861 8.68123L120.782 8.66941C119.045 8.40851 117.328 8.03722 115.671 7.46524C114.837 7.17423 114.024 6.85312 113.241 6.45173C112.849 6.25103 112.468 6.0403 112.096 5.8095C111.724 5.5787 111.363 5.33787 111.011 5.02679L111.363 4.60533C111.684 4.81606 112.066 5.01676 112.437 5.19738C112.819 5.36797 113.201 5.52853 113.592 5.66902C114.376 5.96003 115.179 6.19082 115.992 6.38149C116.806 6.57215 117.629 6.71263 118.463 6.83305C119.286 6.94343 120.13 7.02371 120.963 7.06385C121.034 7.06385 121.104 7.06887 121.174 7.07388C121.244 7.0789 121.315 7.08392 121.385 7.08392C123.464 4.74582 124.026 3.82262 125.261 0.611496H125.834V7.03375C127.551 6.9334 129.268 6.72267 130.975 6.46176C132.632 6.20086 134.279 5.87975 135.916 5.48839C136.328 5.39808 136.74 5.29773 137.141 5.19738L138.366 4.89634C138.636 4.83207 138.907 4.76575 139.177 4.69934C139.751 4.55837 140.327 4.41704 140.907 4.29425C142.604 3.91293 144.321 3.59182 146.039 3.32088C147.766 3.05998 149.493 2.84925 151.23 2.67866C152.968 2.52814 154.705 2.39768 156.452 2.34751C158.2 2.2873 159.947 2.27727 161.684 2.34751C162.558 2.37761 163.432 2.43782 164.295 2.50807C164.547 2.53439 164.8 2.55902 165.053 2.58367L165.053 2.58369C165.668 2.64361 166.284 2.70373 166.896 2.78904C167.76 2.89942 168.624 3.02987 169.487 3.17036C169.719 3.21388 169.951 3.25667 170.183 3.29952C170.808 3.41474 171.436 3.5304 172.058 3.66206C172.737 3.79774 173.416 3.95246 174.09 4.10603L174.09 4.10611C174.263 4.1456 174.436 4.18502 174.609 4.22401L174.777 4.26613L174.778 4.26622C175.566 4.46301 176.361 4.66155 177.139 4.88631C178.816 5.35794 180.473 5.86971 182.11 6.46176C185.374 7.64587 188.547 9.12098 191.449 10.9975L191.47 11.0075ZM78.1629 0.62153C76.0817 2.29518 75.1057 2.45394 73.7774 2.67001L73.7243 2.67866L74.608 4.8863L59.0325 43.0686H61.1715L66.1926 31.0369H66.3332H85.1925L90.1232 43.0786H94.5719L78.1629 0.62153ZM67.1366 28.9597L75.7729 7.686L84.4092 28.9597H67.1366ZM112.949 12.583C110.431 12.583 109.473 13.5879 107.451 15.7104L107.451 15.7108L107.451 15.711L107.451 15.7111C106.982 16.2034 106.456 16.7557 105.84 17.3696L104.263 18.945C104.263 18.945 104.243 12.7134 104.203 12.6432C103.158 13.2653 101.421 13.7169 99.8142 14.038V43.0686H104.263V20.2395L108.43 16.1252C108.993 15.5633 109.555 15.3325 110.118 15.3325C111.282 15.3325 112.389 16.4284 113.447 17.4761L113.502 17.5301C113.527 17.5552 113.554 17.5803 113.582 17.6054C113.61 17.6305 113.637 17.6555 113.662 17.6806L116.113 13.4359C115.169 12.894 113.903 12.5729 112.939 12.5729L112.949 12.583ZM204.962 15.7104C206.983 13.5879 207.941 12.583 210.459 12.583L210.429 12.5729C211.403 12.5729 212.669 12.894 213.613 13.4359L211.162 17.6806C211.137 17.6555 211.11 17.6305 211.082 17.6054C211.054 17.5803 211.027 17.5552 211.002 17.5301L210.947 17.4761C209.889 16.4284 208.782 15.3325 207.617 15.3325C207.055 15.3325 206.493 15.5633 205.93 16.1252L201.763 20.2395V43.0686H197.324V14.038C198.931 13.7169 200.668 13.2653 201.713 12.6432C201.753 12.7134 201.773 18.945 201.773 18.945L203.35 17.3696C203.966 16.7554 204.492 16.2028 204.962 15.7104ZM183.757 43.0686C186.95 43.3496 189.3 41.0917 191.891 37.3688C192.011 37.1481 191.278 36.6363 191.087 36.8671C189.179 39.4561 187.643 40.4194 185.795 40.4194C183.455 40.4194 181.788 38.8439 181.788 34.9505V14.3692H188.346L188.868 12.6733H181.848V9.78327L181.795 9.76661C180.922 9.49578 179.646 9.09948 177.53 9.03066V12.6733H171.364L171.063 14.3692H177.4V35.2314C177.4 40.871 179.76 42.7073 183.757 43.0686ZM181.909 0.762018V4.93648C181.058 4.54528 180.409 4.3775 179.632 4.17662C179.492 4.14047 179.348 4.10324 179.198 4.06346C179.58 3.48144 180.775 1.35407 180.975 0.762018C180.975 0.762018 180.975 0.751984 180.995 0.741949H181.899V0.762018H181.909ZM141.228 42.5568H145.667C145.667 39.426 145.657 21.0122 145.646 20.9821C144.592 21.6042 142.835 22.0658 141.228 22.3769V42.5568ZM241.128 12.6432L232.843 32.9134L224.378 12.6432H218.634L230.021 39.5364L226.918 47.0223C226.867 47.1405 226.815 47.2612 226.762 47.384C225.35 50.6486 223.29 55.4113 219.477 55.4113C217.68 55.4113 216.936 53.7355 216.786 51.9895H212.016C212.126 52.421 212.307 52.8224 212.538 53.2238C213.331 54.5684 215.018 56.2543 218.794 56.2543C222.912 56.2543 226.808 53.2238 229.79 46.1493L244 12.6432H241.128ZM171.345 39.0848C172.068 37.6197 172.74 35.2816 171.857 33.1643L171.877 33.1743C170.408 29.6788 165.899 27.6514 165.39 27.4229L165.372 27.4145L165.349 27.4043C164.215 26.8725 162.126 26.0998 159.073 25.0762C159.003 25.0562 158.932 25.0361 158.872 25.006C157.125 24.3036 155.97 23.5409 155.418 22.7281C154.845 21.9053 154.564 20.9319 154.564 19.8281C154.564 18.1523 155.167 16.7273 156.382 15.5432C157.597 14.3591 159.234 13.7671 161.302 13.7671C162.538 13.7671 163.632 13.9778 164.616 14.4093C165.6 14.8408 166.464 15.4529 167.227 16.2457C167.98 17.0384 168.362 17.4498 168.362 17.4498L168.613 17.4097L167.177 13.6366C167.117 13.6366 167.067 13.6266 167.006 13.5965C166.876 13.5262 166.223 13.3757 165.038 13.1449C163.863 12.9141 162.768 12.7937 161.754 12.7937C159.143 12.7937 157.034 13.5864 155.428 15.1719C153.811 16.7574 153.007 18.7142 153.007 21.0523C153.007 22.3267 153.319 23.5811 153.951 24.7953C154.574 26.0195 155.357 26.9327 156.301 27.5448C157.235 28.1569 158.862 28.8694 161.172 29.6822C163.492 30.4749 165.078 31.1573 165.912 31.7092C166.745 32.2611 167.398 32.9034 167.86 33.6359C168.332 34.3684 168.563 35.2615 168.563 36.2951C168.563 38.001 167.89 39.4661 166.554 40.6803C165.219 41.8945 163.261 42.5066 160.69 42.5066C159.987 42.5066 158.039 42.2056 157.014 41.7038C155.588 41.0014 154.433 40.1184 153.55 39.0547C153.269 38.7135 153.017 38.3723 152.787 38.001C152.505 37.5796 152.264 37.138 152.063 36.6664C151.883 36.275 151.722 35.8636 151.592 35.4321C151.17 34.0875 150.969 33.375 150.969 33.375L150.658 33.2746L150.145 38.4626C150.168 38.4756 150.266 38.5604 150.423 38.6969L150.423 38.697L150.423 38.6971L150.424 38.6975C150.755 38.9848 151.349 39.5008 152.063 40.0581C152.154 40.1284 154.765 41.9748 155.94 42.5568C156.713 42.9482 157.476 43.2492 158.229 43.47C160.429 44.1423 162.839 44.2828 164.897 43.6105C167.669 42.6973 169.999 41.7841 171.345 39.0848ZM147.062 15.4429C146.128 15.4429 145.255 16.2055 144.592 17.0886C143.939 17.9716 143.357 19.1457 143.357 20.4C143.357 19.1557 142.784 17.9817 142.122 17.0886C141.459 16.2156 140.585 15.4429 139.651 15.4429C140.113 15.4429 140.575 15.2422 140.987 14.9411C141.398 14.6401 141.79 14.2186 142.122 13.7771C142.784 12.894 143.357 11.72 143.357 10.4757C143.357 11.72 143.929 12.894 144.592 13.7771C144.923 14.2186 145.305 14.6401 145.727 14.9411C146.148 15.2422 146.6 15.4429 147.062 15.4429ZM5.00489 30.4047V38.3121C5.00489 38.884 5.01493 39.3958 5.03501 39.8574C5.0551 40.319 5.11535 40.7003 5.19569 41.0114C5.28607 41.3225 5.41662 41.5533 5.58734 41.7138C5.75805 41.8744 5.99907 41.9647 6.31037 41.9647C6.77232 41.9647 7.20413 41.7439 7.60582 41.3125C8.00751 40.8709 8.2686 40.3491 8.37907 39.737H8.67029V42.1353C8.46945 42.1353 8.30877 42.2055 8.17823 42.336C8.00751 42.4865 7.75645 42.6571 7.4351 42.8277C7.11375 42.9983 6.64177 43.0886 6.00911 43.0886C5.21577 43.0886 4.6032 42.9381 4.17138 42.627C3.72953 42.3159 3.41822 41.9145 3.21737 41.4128C3.01653 40.9111 2.90607 40.3491 2.87594 39.737C2.84581 39.1249 2.82573 38.5027 2.82573 37.8705V30.4147H0.998047V29.3008H2.83577V26.3807C2.83577 26.0094 2.78556 25.6683 2.68514 25.3471C2.58472 25.026 2.26337 24.8554 1.71104 24.8354V24.5042L4.99485 23.4506V29.2908H8.67029V30.4047H5.00489ZM24.3559 40.9311C24.3559 41.1118 24.376 41.3024 24.4262 41.5031C24.4664 41.7139 24.5367 41.9045 24.6371 42.0751C24.7375 42.2557 24.848 42.4063 24.9685 42.5367C25.089 42.6672 25.2397 42.7374 25.4104 42.7374V43.0686H21.1726V42.7374C21.3232 42.7374 21.4638 42.6672 21.6044 42.5367C21.7349 42.4063 21.8554 42.2557 21.9458 42.0751C22.0462 41.9045 22.1165 41.7038 22.1567 41.5031C22.1969 41.2924 22.227 41.1017 22.227 40.9311V34.82C22.227 34.0272 22.1165 33.3449 21.8956 32.7528C21.6747 32.1608 21.3835 31.6691 21.0119 31.2777C20.6403 30.8863 20.2186 30.5953 19.7466 30.4047C19.2746 30.2241 18.8026 30.1237 18.3206 30.1237C17.8386 30.1237 17.3666 30.214 16.8946 30.4047C16.4226 30.5953 16.0109 30.8462 15.6494 31.1774C15.2878 31.5085 14.9966 31.9099 14.7656 32.3715C14.5347 32.8431 14.4242 33.3649 14.4242 33.9269V40.9211C14.4242 41.1017 14.4443 41.2924 14.4945 41.4931C14.5347 41.7038 14.605 41.8945 14.7054 42.0651C14.8058 42.2457 14.9163 42.3962 15.0368 42.5267C15.1573 42.6571 15.3079 42.7274 15.4786 42.7274V43.0585H11.2107V42.7274C11.3613 42.7274 11.5019 42.6571 11.6425 42.5267C11.7731 42.3962 11.8936 42.2457 11.9839 42.0651C12.0844 41.8945 12.1547 41.6938 12.1948 41.4931C12.235 41.2824 12.2651 41.0917 12.2651 40.9211V24.143C12.2651 23.7717 12.2149 23.4205 12.1045 23.0893C11.994 22.7582 11.6726 22.5876 11.1504 22.5675V22.2364L14.4342 21.2229V30.7158C14.5849 30.5452 14.7857 30.3445 15.0267 30.1438C15.2677 29.933 15.559 29.7424 15.9004 29.5517C16.2418 29.3611 16.6335 29.2105 17.0854 29.0901C17.5373 28.9697 18.0695 28.9095 18.6821 28.9095C19.7064 28.9095 20.5901 29.0801 21.3132 29.4313C22.0362 29.7825 22.6287 30.2341 23.0906 30.796C23.5526 31.358 23.884 31.9701 24.0948 32.6324C24.3057 33.3047 24.4062 33.947 24.4062 34.5892V40.9211L24.3559 40.9311ZM31.0037 38.6232C30.7124 37.9308 30.5317 37.1982 30.4413 36.4356V36.4256H41.8392C41.8392 35.3619 41.7086 34.3685 41.4475 33.4754C41.1864 32.5823 40.7848 31.7995 40.2525 31.1473C39.7102 30.485 39.0374 29.9732 38.214 29.6019C37.3905 29.2306 36.4365 29.04 35.3419 29.04C34.1167 29.04 33.0623 29.2507 32.1886 29.6621C31.315 30.0736 30.602 30.6154 30.0396 31.2878C29.4873 31.9501 29.0655 32.7027 28.7944 33.5356C28.5232 34.3685 28.3826 35.1813 28.3826 35.9941C28.3826 37.2585 28.5935 38.3522 28.9952 39.2754C29.3969 40.1986 29.9392 40.9513 30.622 41.5433C31.3049 42.1354 32.0882 42.5769 32.9719 42.8579C33.8657 43.1489 34.7996 43.2894 35.7837 43.2894C37.0089 43.2894 37.993 43.1388 38.7362 42.8478C39.4793 42.5568 40.0718 42.2758 40.5136 42.0149C40.7345 41.8845 40.9254 41.7741 41.086 41.6838C41.2467 41.5935 41.3973 41.5533 41.5279 41.5533V39.0948H41.2367C41.1061 39.5765 40.8551 40.008 40.4935 40.3893C40.132 40.7807 39.7203 41.1018 39.2583 41.3627C38.7964 41.6336 38.2943 41.8343 37.7621 41.9748C37.2298 42.1153 36.7177 42.1855 36.2356 42.1855C35.3318 42.1855 34.5485 42.035 33.8657 41.7139C33.1828 41.3928 32.6104 40.9713 32.1384 40.4495C31.6664 39.9177 31.2848 39.3156 31.0037 38.6232ZM33.2129 30.5954C33.7753 30.2843 34.4381 30.1338 35.2013 30.1338L35.1912 30.1438C35.9344 30.1438 36.5871 30.2943 37.1595 30.5853C37.7319 30.8764 38.2039 31.2677 38.5755 31.7494C38.947 32.231 39.2383 32.783 39.4492 33.3951C39.65 34.0072 39.7705 34.6294 39.7906 35.2615H30.4312C30.5015 34.6494 30.6421 34.0373 30.8631 33.4252C31.084 32.8131 31.3953 32.2611 31.7869 31.7795C32.1786 31.2978 32.6506 30.9065 33.2129 30.5954Z" fill="white"/>
<path d="M54.505 66.9915H53.1694L52.3459 63.0277L50.0462 67.4531L47.7867 63.0378L46.9733 66.9915H45.6377L47.4152 59.646L50.0462 65.0648L52.7175 59.646L54.505 66.9915Z" fill="white"/>
<path d="M61.1934 60.9706C60.9725 60.6595 60.6612 60.4287 60.2796 60.2682C59.8879 60.1076 59.426 60.0273 58.9038 60.0273C58.2912 60.0273 57.769 60.1176 57.3272 60.3083C56.8953 60.499 56.5439 60.6896 56.2828 60.8703L56.8652 61.7734C56.9757 61.6931 57.1263 61.6028 57.3171 61.4824C57.5079 61.372 57.7389 61.2716 58.01 61.1813C58.2711 61.1011 58.5724 61.0509 58.9038 61.0509C59.2753 61.0509 59.6168 61.1412 59.908 61.3118C60.1992 61.4824 60.3398 61.7433 60.3398 62.0945V63.2284C60.1691 63.118 59.9482 63.0077 59.6971 62.9173C59.3858 62.807 59.0143 62.7468 58.5724 62.7468C57.9799 62.7468 57.4678 62.8371 57.0259 63.0177C56.5941 63.1983 56.2526 63.4592 56.0217 63.8004C55.7807 64.1316 55.6602 64.543 55.6602 65.0246C55.6602 65.5063 55.7706 65.8776 55.9815 66.1887C56.1924 66.4998 56.4736 66.7406 56.8351 66.8911C57.1966 67.0517 57.5883 67.1319 58.01 67.1319C58.482 67.1319 58.9138 67.0517 59.2954 66.8911C59.677 66.7306 59.9883 66.4897 60.2193 66.1786C60.2595 66.1285 60.2997 66.0683 60.3298 66.0081V66.9814H61.5148V62.0845C61.5148 61.6429 61.4043 61.2616 61.1834 60.9606L61.1934 60.9706ZM60.0787 65.3458C59.908 65.6067 59.667 65.7873 59.3557 65.9077C59.0444 66.0281 58.6929 66.0883 58.3013 66.0883C58.0301 66.0883 57.7891 66.0482 57.5782 65.9579C57.3573 65.8776 57.1866 65.7471 57.056 65.5866C56.9255 65.426 56.8652 65.2253 56.8652 64.9845C56.8652 64.7035 56.9255 64.4727 57.056 64.272C57.1866 64.0713 57.3774 63.9208 57.6385 63.8104C57.8996 63.7001 58.231 63.6499 58.6226 63.6499C59.0544 63.6499 59.4461 63.7101 59.7975 63.8205C59.9783 63.8807 60.149 63.9509 60.3298 64.0513V64.3222C60.3298 64.7437 60.2494 65.0849 60.0687 65.3458H60.0787Z" fill="white"/>
<path d="M68.9052 60.228V67.0516H67.7102V64.0111H63.9242V67.0516H62.7393V60.228H63.9242V62.8972H67.7102V60.228H68.9052Z" fill="white"/>
<path d="M75.8146 59.646V66.9915H74.6296V62.5661L70.1006 67.5133V60.1678H71.2856V64.5932L75.8146 59.646Z" fill="white"/>
<path d="M82.5224 66.9915H81.0361L78.2143 63.5295V66.9915H77.0293V60.1679H78.2143V62.5662L80.7349 60.1679H82.2211L79.2486 62.9876L82.5224 66.9915Z" fill="white"/>
<path d="M92.7365 61.7433C92.4252 61.2114 92.0034 60.79 91.4712 60.4889C90.939 60.1779 90.3364 60.0273 89.6636 60.0273C88.9908 60.0273 88.4083 60.1779 87.866 60.4889C87.3338 60.79 86.912 61.2114 86.6007 61.7433C86.4099 62.0744 86.2693 62.4457 86.199 62.8371H84.9438V60.1678H83.7588V66.9915H84.9438V63.9509H86.1488C86.199 64.4828 86.3396 64.9745 86.6007 65.416C86.912 65.9579 87.3338 66.3793 87.866 66.6804C88.3983 66.9915 89.0008 67.142 89.6636 67.142C90.3264 67.142 90.939 66.9915 91.4712 66.6804C92.0034 66.3793 92.4252 65.9478 92.7365 65.416C93.0478 64.8842 93.1985 64.272 93.1985 63.5796C93.1985 62.8872 93.0478 62.2751 92.7365 61.7332V61.7433ZM91.6921 64.844C91.4913 65.2053 91.2101 65.4963 90.8586 65.707C90.5072 65.9177 90.1055 66.0281 89.6636 66.0281C89.2217 66.0281 88.8201 65.9278 88.4686 65.707C88.1171 65.4963 87.8359 65.2053 87.6351 64.844C87.4342 64.4727 87.3338 64.0613 87.3338 63.5796C87.3338 63.098 87.4342 62.6865 87.6351 62.3153C87.8359 61.944 88.1171 61.653 88.4686 61.4523C88.8201 61.2415 89.2117 61.1412 89.6636 61.1412C90.1155 61.1412 90.5072 61.2415 90.8586 61.4523C91.2101 61.663 91.4913 61.944 91.6921 62.3153C91.893 62.6865 91.9934 63.108 91.9934 63.5796C91.9934 64.0513 91.893 64.4727 91.6921 64.844Z" fill="white"/>
<path d="M100.84 61.673C100.529 61.1412 100.127 60.7398 99.6152 60.4488C99.1031 60.1578 98.5407 60.0173 97.9181 60.0173C97.3557 60.0173 96.8536 60.1578 96.4218 60.4488C96.0904 60.6696 95.8092 60.9706 95.5883 61.3419V60.1678H94.4033V70.2628H95.5883V65.8074C95.8092 66.1887 96.0904 66.4897 96.4218 66.7105C96.8536 67.0015 97.3457 67.142 97.9181 67.142C98.5407 67.142 99.1031 67.0015 99.6152 66.7105C100.127 66.4295 100.529 66.0181 100.84 65.4762C101.142 64.9444 101.302 64.3122 101.302 63.5796C101.302 62.8471 101.152 62.2049 100.84 61.673ZM99.7759 64.9143C99.565 65.2755 99.2838 65.5565 98.9323 65.7472C98.5809 65.9378 98.1892 66.0281 97.7675 66.0281C97.426 66.0281 97.0846 65.9378 96.7431 65.7472C96.4118 65.5565 96.1306 65.2855 95.9097 64.9143C95.6887 64.553 95.5883 64.1014 95.5883 63.5796C95.5883 63.0578 95.6988 62.6063 95.9097 62.245C96.1306 61.8838 96.4017 61.6028 96.7431 61.4121C97.0846 61.2215 97.426 61.1312 97.7675 61.1312C98.1892 61.1312 98.5809 61.2215 98.9323 61.4121C99.2838 61.6028 99.565 61.8737 99.7759 62.245C99.9868 62.6063 100.097 63.0578 100.097 63.5796C100.097 64.1014 99.9868 64.553 99.7759 64.9143Z" fill="white"/>
<path d="M115.191 66.9915H113.705L110.883 63.5295V66.9915H109.698V60.1679H110.883V62.5662L113.404 60.1679H114.89L111.918 62.9876L115.191 66.9915Z" fill="white"/>
<path d="M121.989 60.9706C121.768 60.6595 121.457 60.4287 121.065 60.2682C120.673 60.1076 120.211 60.0273 119.689 60.0273C119.077 60.0273 118.554 60.1176 118.112 60.3083C117.681 60.499 117.329 60.6896 117.078 60.8703L117.661 61.7734C117.771 61.6931 117.922 61.6028 118.112 61.4824C118.303 61.372 118.534 61.2716 118.805 61.1813C119.077 61.091 119.368 61.0509 119.699 61.0509C120.071 61.0509 120.412 61.1412 120.703 61.3118C120.995 61.4824 121.145 61.7433 121.145 62.0945V63.2284C120.974 63.108 120.754 63.0077 120.503 62.9173C120.191 62.807 119.82 62.7468 119.378 62.7468C118.785 62.7468 118.273 62.8371 117.831 63.0177C117.399 63.1983 117.058 63.4592 116.827 63.8004C116.586 64.1316 116.476 64.543 116.476 65.0246C116.476 65.5063 116.576 65.8776 116.797 66.1887C117.008 66.4998 117.289 66.7406 117.651 66.8911C118.002 67.0517 118.394 67.1319 118.825 67.1319C119.297 67.1319 119.729 67.0517 120.121 66.8911C120.503 66.7306 120.814 66.4897 121.045 66.1786C121.085 66.1184 121.125 66.0683 121.155 66.0081V66.9915H122.34V62.0945C122.34 61.653 122.23 61.2716 122.009 60.9706H121.989ZM120.874 65.3458C120.703 65.6067 120.462 65.7873 120.151 65.9077C119.85 66.0281 119.498 66.0883 119.097 66.0883C118.825 66.0883 118.584 66.0482 118.364 65.9579C118.143 65.8776 117.972 65.7471 117.841 65.5866C117.711 65.426 117.651 65.2253 117.651 64.9845C117.651 64.7035 117.711 64.4727 117.841 64.272C117.972 64.0713 118.163 63.9208 118.424 63.8104C118.685 63.7001 119.016 63.6499 119.408 63.6499C119.84 63.6499 120.231 63.7101 120.583 63.8205C120.764 63.8807 120.944 63.9509 121.115 64.0513V64.3222C121.115 64.7437 121.025 65.0849 120.854 65.3458H120.874Z" fill="white"/>
<path d="M129.018 66.9915H127.532L124.71 63.5295V66.9915H123.515V60.1679H124.71V62.5662L127.23 60.1679H128.717L125.744 62.9876L129.018 66.9915Z" fill="white"/>
<path d="M143.127 59.646V66.9915H141.932V62.5661L137.403 67.5133V60.1678H138.598V64.5932L143.127 59.646Z" fill="white"/>
<path d="M145.9 64.844C146.1 65.2153 146.382 65.4963 146.733 65.717C147.085 65.9278 147.486 66.0382 147.928 66.0382C148.29 66.0382 148.641 65.9779 148.962 65.8676C149.284 65.7572 149.565 65.5966 149.806 65.406C150.047 65.2153 150.208 65.0046 150.308 64.7938V66.279C150.067 66.56 149.736 66.7707 149.294 66.9212C148.852 67.0717 148.4 67.152 147.938 67.152C147.275 67.152 146.673 67.0015 146.141 66.6904C145.608 66.3793 145.187 65.9579 144.875 65.426C144.564 64.8842 144.403 64.272 144.403 63.5897C144.403 62.9073 144.564 62.2852 144.875 61.7533C145.187 61.2215 145.608 60.8 146.141 60.4889C146.673 60.1779 147.275 60.0273 147.938 60.0273C148.4 60.0273 148.852 60.1076 149.294 60.2581C149.736 60.4087 150.077 60.6294 150.308 60.9004V62.3855C150.208 62.1547 150.037 61.954 149.806 61.7633C149.565 61.5727 149.284 61.4222 148.962 61.3118C148.641 61.2014 148.3 61.1412 147.928 61.1412C147.486 61.1412 147.085 61.2415 146.733 61.4523C146.382 61.663 146.1 61.954 145.9 62.3253C145.699 62.6966 145.598 63.118 145.598 63.5897C145.598 64.0613 145.699 64.4828 145.9 64.8541V64.844Z" fill="white"/>
<path d="M157.007 66.9915H155.521L152.699 63.5295V66.9915H151.514V60.1679H152.699V62.5662L155.219 60.1679H156.705L153.743 62.9876L157.007 66.9915Z" fill="white"/>
<path d="M164.749 60.1679L160.291 70.2628H158.955L160.823 66.0282L158.212 60.1679H159.628L161.536 64.8742L163.414 60.1679H164.749Z" fill="white"/>
<path d="M167.409 64.844C167.61 65.2153 167.891 65.4963 168.243 65.717C168.594 65.9278 168.996 66.0382 169.438 66.0382C169.799 66.0382 170.151 65.9779 170.472 65.8676C170.794 65.7572 171.075 65.5966 171.316 65.406C171.557 65.2153 171.717 65.0046 171.818 64.7938V66.279C171.577 66.56 171.245 66.7707 170.804 66.9212C170.362 67.0717 169.91 67.152 169.448 67.152C168.785 67.152 168.183 67.0015 167.65 66.6904C167.118 66.3793 166.696 65.9579 166.385 65.426C166.074 64.8842 165.913 64.272 165.913 63.5897C165.913 62.9073 166.074 62.2852 166.385 61.7533C166.696 61.2215 167.118 60.8 167.65 60.4889C168.183 60.1779 168.785 60.0273 169.448 60.0273C169.91 60.0273 170.362 60.1076 170.804 60.2581C171.245 60.4087 171.587 60.6294 171.818 60.9004V62.3855C171.717 62.1547 171.547 61.954 171.316 61.7633C171.075 61.5727 170.794 61.4222 170.472 61.3118C170.151 61.2014 169.809 61.1412 169.438 61.1412C168.996 61.1412 168.594 61.2415 168.243 61.4523C167.891 61.663 167.61 61.954 167.409 62.3253C167.209 62.6966 167.108 63.118 167.108 63.5897C167.108 64.0613 167.209 64.4828 167.409 64.8541V64.844Z" fill="white"/>
<path d="M174.469 64.844C174.67 65.2153 174.951 65.4963 175.302 65.717C175.654 65.9278 176.056 66.0382 176.497 66.0382C176.859 66.0382 177.21 65.9779 177.532 65.8676C177.853 65.7572 178.134 65.5966 178.375 65.406C178.616 65.2153 178.777 65.0046 178.877 64.7938V66.279C178.636 66.56 178.305 66.7707 177.863 66.9212C177.421 67.0717 176.969 67.152 176.508 67.152C175.845 67.152 175.242 67.0015 174.71 66.6904C174.178 66.3793 173.756 65.9579 173.445 65.426C173.133 64.8842 172.973 64.272 172.973 63.5897C172.973 62.9073 173.133 62.2852 173.445 61.7533C173.756 61.2215 174.178 60.8 174.71 60.4889C175.242 60.1779 175.845 60.0273 176.508 60.0273C176.969 60.0273 177.421 60.1076 177.863 60.2581C178.305 60.4087 178.647 60.6294 178.877 60.9004V62.3855C178.777 62.1547 178.606 61.954 178.375 61.7633C178.134 61.5727 177.853 61.4222 177.532 61.3118C177.21 61.2014 176.869 61.1412 176.497 61.1412C176.056 61.1412 175.654 61.2415 175.302 61.4523C174.951 61.663 174.67 61.954 174.469 62.3253C174.268 62.6966 174.168 63.118 174.168 63.5897C174.168 64.0613 174.268 64.4828 174.469 64.8541V64.844Z" fill="white"/>
<path d="M184.111 60.1679V61.2817H182.695V66.9915H181.51V61.2817H180.094V60.1679H184.111Z" fill="white"/>
<path d="M190.136 64.1015C189.915 63.8506 189.623 63.68 189.242 63.5797C189.171 63.5596 189.091 63.5395 189.011 63.5295C189.352 63.4091 189.623 63.2285 189.834 62.9776C190.055 62.7267 190.156 62.4056 190.156 62.0243C190.156 61.5828 190.045 61.2215 189.834 60.9506C189.613 60.6796 189.332 60.4789 188.981 60.3585C188.629 60.2381 188.238 60.1779 187.816 60.1779H185.285V67.0015H188.258C189.041 67.0015 189.603 66.8209 189.945 66.4597C190.286 66.0984 190.457 65.6569 190.457 65.1451C190.457 64.7036 190.346 64.3524 190.126 64.1115L190.136 64.1015ZM186.48 61.2115H187.816C188.167 61.2115 188.458 61.2918 188.659 61.4523C188.86 61.6129 188.971 61.8336 188.971 62.0945C188.971 62.225 188.941 62.3454 188.89 62.4558C188.84 62.5662 188.76 62.6765 188.659 62.7568C188.559 62.8471 188.438 62.9174 188.298 62.9575C188.157 62.9977 187.997 63.0278 187.816 63.0278H186.48V61.2014V61.2115ZM188.951 65.6769C188.74 65.8676 188.408 65.9579 187.966 65.9579H186.48V64.0613H187.966C188.197 64.0613 188.388 64.0814 188.549 64.1316C188.71 64.1717 188.85 64.242 188.951 64.3323C189.051 64.4226 189.131 64.5229 189.192 64.6233C189.242 64.7337 189.272 64.8541 189.272 64.9946C189.272 65.2655 189.171 65.4863 188.951 65.6769Z" fill="white"/>
<path d="M192.084 61.7433C192.396 61.2114 192.817 60.79 193.35 60.4789C193.882 60.1678 194.484 60.0173 195.147 60.0173C195.81 60.0173 196.423 60.1678 196.955 60.4789C197.487 60.79 197.909 61.2014 198.22 61.7433C198.531 62.2852 198.692 62.8872 198.692 63.5796C198.692 64.272 198.531 64.8741 198.22 65.416C197.909 65.9579 197.487 66.3793 196.955 66.6804C196.423 66.9814 195.82 67.142 195.147 67.142C194.474 67.142 193.882 66.9915 193.35 66.6804C192.817 66.3693 192.396 65.9478 192.084 65.416C191.773 64.8741 191.612 64.262 191.612 63.5796C191.612 62.8973 191.773 62.2751 192.084 61.7433ZM193.129 64.844C193.33 65.2153 193.611 65.4963 193.962 65.717C194.314 65.9278 194.715 66.0382 195.157 66.0382C195.599 66.0382 196.001 65.9278 196.352 65.717C196.704 65.5063 196.985 65.2153 197.186 64.844C197.387 64.4828 197.487 64.0613 197.487 63.5796C197.487 63.098 197.387 62.6865 197.186 62.3153C196.985 61.944 196.704 61.653 196.352 61.4422C196.001 61.2315 195.599 61.1312 195.157 61.1312C194.715 61.1312 194.314 61.2315 193.962 61.4422C193.611 61.653 193.33 61.944 193.129 62.3153C192.928 62.6865 192.827 63.108 192.827 63.5796C192.827 64.0513 192.928 64.4727 193.129 64.844Z" fill="white"/>
</svg>
